<?xml version="1.0" ?><svg viewBox="0 0 22.575 22.576" xmlns="http://www.w3.org/2000/svg"><g data-name="Layer 2" id="Layer_2"><g data-name="Layer 1" id="Layer_1-2"><path d="M7.4,9.811a.341.341,0,0,1-.342.341H4.7a2.871,2.871,0,0,1,0-5.741h6.682a2.871,2.871,0,0,1,0,5.741H10.5a.342.342,0,0,1,0-.684h.876a2.187,2.187,0,0,0,0-4.373H4.7a2.187,2.187,0,1,0,0,4.373H7.059A.341.341,0,0,1,7.4,9.811ZM17.881,6.95H15.515a.342.342,0,0,0,0,.684h2.366a2.187,2.187,0,0,1,0,4.373H11.2a2.187,2.187,0,0,1,0-4.373c.409-.046,1.21.18,1.217-.342a.342.342,0,0,0-.342-.342H11.2a2.871,2.871,0,0,0,0,5.741h6.683A2.871,2.871,0,0,0,17.881,6.95Zm4.694-5.7V18.585a1.256,1.256,0,0,1-1.254,1.254H15.734v2.052h2.4a.342.342,0,0,1,0,.684H4.446a.342.342,0,0,1,0-.684h2.4V19.839H1.254A1.255,1.255,0,0,1,0,18.585V1.254A1.255,1.255,0,0,1,1.254,0H21.321A1.255,1.255,0,0,1,22.575,1.254ZM15.05,19.839H7.525v2.052H15.05ZM21.891,17.1H.684v1.483a.571.571,0,0,0,.57.57H21.321a.571.571,0,0,0,.57-.57Zm0-15.848a.571.571,0,0,0-.57-.57H1.254a.571.571,0,0,0-.57.57V16.418H21.891ZM16.759,2.51A.344.344,0,0,0,17,1.926.339.339,0,1,0,16.759,2.51Zm1.824,0a.342.342,0,0,0,0-.684A.342.342,0,0,0,18.583,2.51Zm1.825,0a.347.347,0,0,0,.241-.588C20.146,1.526,19.766,2.448,20.408,2.51Z" data-name="link building" id="link_building"/></g></g></svg>